<svg width="1440" height="1024" viewBox="0 0 1440 1024" fill="none" xmlns="http://www.w3.org/2000/svg">
<g clip-path="url(#clip0)">
<rect width="1440" height="1024" fill="white"/>
<path d="M-986 999.2L-942.387 874.3C-898.392 749.4 -810.018 499.6 -722.027 499.6C-636.332 499.6 -549.871 749.4 -461.88 832.537C-373.889 917.234 -285.898 831.366 -197.907 832.537C-111.446 831.366 -25.7507 917.234 62.2403 957.437C150.614 999.2 238.222 999.2 326.213 1040.96C413.057 1081.17 502.195 1167.03 586.36 1165.86C675.499 1167.03 762.342 1081.17 850.333 957.437C937.942 831.366 1026.32 667.434 1114.31 520.287C1200 374.7 1286.46 249.8 1374.45 270.487C1462.44 292.734 1550.44 456.666 1638.43 582.737C1724.89 706.466 1810.58 792.334 1898.57 791.163C1986.95 792.334 2074.56 706.466 2162.55 562.05C2249.39 417.634 2338.53 206.866 2422.69 229.113C2511.83 249.8 2598.68 499.6 2686.67 624.5C2774.28 749.4 2862.65 749.4 2950.64 707.637C3036.34 667.434 3122.8 581.566 3210.79 499.6C3298.78 417.634 3386.77 331.766 3474.76 374.7C3561.22 417.634 3646.92 581.566 3734.91 749.4C3823.28 917.234 3910.89 1081.17 3998.88 1103.41C4085.72 1124.1 4174.86 999.2 4259.03 936.75C4348.17 874.3 4435.01 874.3 4480.92 874.3H4523V0H4479.39C4435.39 0 4347.02 0 4259.03 0C4173.33 0 4086.87 0 3998.88 0C3910.89 0 3822.9 0 3734.91 0C3648.45 0 3562.75 0 3474.76 0C3386.39 0 3298.78 0 3210.79 0C3123.94 0 3034.8 0 2950.64 0C2861.5 0 2774.66 0 2686.67 0C2599.06 0 2510.68 0 2422.69 0C2337 0 2250.54 0 2162.55 0C2074.56 0 1986.56 0 1898.57 0C1812.11 0 1726.42 0 1638.43 0C1550.05 0 1462.44 0 1374.45 0C1287.61 0 1198.47 0 1114.31 0C1025.17 0 938.324 0 850.333 0C762.725 0 674.351 0 586.36 0C500.665 0 414.204 0 326.213 0C238.222 0 150.231 0 62.2403 0C-24.2204 0 -109.916 0 -197.907 0C-286.28 0 -373.889 0 -461.88 0C-548.723 0 -637.862 0 -722.027 0C-811.166 0 -898.009 0 -943.917 0H-986V999.2Z" fill="#0096FF"/>
<g clip-path="url(#clip1)">
<path d="M791.032 727.703C771.521 742.248 765.991 767.838 765.991 767.838C765.991 767.838 792.095 769.847 811.606 755.303C831.117 740.759 836.646 715.168 836.646 715.168C836.646 715.168 810.542 713.159 791.032 727.703Z" fill="#F1F1F1"/>
<path d="M799.159 734.532C789.782 756.988 766.297 768.56 766.297 768.56C766.297 768.56 758.016 743.724 767.393 721.267C776.77 698.811 800.255 687.239 800.255 687.239C800.255 687.239 808.536 712.076 799.159 734.532Z" fill="#F1F1F1"/>
<path d="M1360.5 669.614C1358.43 655.65 1357.88 641.501 1358.87 627.419L1360.5 604.112C1351.5 622.02 1353.54 645.59 1360.5 669.614V669.614Z" fill="#CACACA"/>
<path d="M1367.52 673.513C1366.52 665.18 1366.26 656.776 1366.73 648.397L1367.52 634.523C1363.19 645.183 1364.17 659.213 1367.52 673.513Z" fill="#CACACA"/>
<path d="M1398.72 690.67V698.468C1398.71 699.088 1398.47 699.681 1398.03 700.119C1397.59 700.557 1397 700.804 1396.38 700.808H1392.48C1392.37 700.807 1392.27 700.827 1392.18 700.866C1392.08 700.905 1392 700.963 1391.93 701.035C1391.85 701.108 1391.8 701.194 1391.76 701.289C1391.72 701.383 1391.7 701.485 1391.7 701.587V765.53C1391.69 766.15 1391.45 766.743 1391.01 767.181C1390.57 767.619 1389.98 767.866 1389.36 767.87H1341.79C1341.17 767.869 1340.58 767.623 1340.14 767.184C1339.7 766.745 1339.45 766.151 1339.45 765.53V701.587C1339.45 701.381 1339.37 701.183 1339.22 701.037C1339.08 700.891 1338.88 700.808 1338.67 700.808H1333.99C1333.37 700.807 1332.78 700.56 1332.34 700.122C1331.9 699.683 1331.65 699.088 1331.65 698.468V690.67C1331.65 690.363 1331.71 690.059 1331.83 689.775C1331.95 689.491 1332.12 689.232 1332.34 689.015C1332.56 688.798 1332.81 688.626 1333.1 688.508C1333.38 688.391 1333.69 688.33 1333.99 688.331H1396.38C1397 688.333 1397.59 688.58 1398.03 689.018C1398.47 689.456 1398.71 690.05 1398.72 690.67V690.67Z" fill="#F2F2F2"/>
<path d="M1391.77 702.445H1339.52V704.784H1391.77V702.445Z" fill="#E6E6E6"/>
<path d="M1391.7 736.869C1374.21 744.104 1356.54 744.183 1338.67 736.869V720.388C1355.87 714.61 1374.49 714.61 1391.7 720.388V736.869Z" fill="#E6E6E6"/>
<path d="M1098.85 484.877C1137.88 484.877 1169.52 453.238 1169.52 414.211C1169.52 375.183 1137.88 343.545 1098.85 343.545C1059.82 343.545 1028.19 375.183 1028.19 414.211C1028.19 453.238 1059.82 484.877 1098.85 484.877Z" fill="#FEB8B8"/>
<path d="M1164.86 353.246C1154.29 336.09 1137.75 323.448 1118.43 317.754L1109.75 324.085V315.865C1105.11 315.154 1100.41 314.881 1095.72 315.047L1088.23 321.82V315.61C1077.15 316.987 1066.48 320.645 1056.88 326.354C1047.28 332.063 1038.97 339.698 1032.47 348.779C1016.22 372.211 1013.47 404.811 1029.46 428.431C1033.85 414.944 1039.17 402.289 1043.56 388.803C1047.01 389.273 1050.51 389.29 1053.96 388.853L1059.3 376.395L1060.79 388.326C1077.34 386.885 1101.89 383.719 1117.58 380.818L1116.05 371.665L1125.18 379.271C1129.99 378.165 1132.84 377.161 1132.6 376.394C1144.27 395.205 1158.55 407.219 1170.22 426.03C1174.65 399.506 1179.75 377.451 1164.86 353.246Z" fill="#2F2E41"/>
<path d="M1250.83 595.93C1248.4 581.311 1245.9 566.411 1239.1 553.241C1234.64 544.615 1227.55 536.395 1217.99 534.689C1216.11 534.521 1214.26 534.093 1212.5 533.417C1209.7 532.068 1172.07 510.589 1166.09 506.848C1160.96 503.637 1152.85 497.69 1148.77 497.69C1144.65 497.6 1128.89 501.269 1067.35 496.459C1067.35 496.459 1050.45 503.122 1037.37 511.202C1037.17 511.071 973.497 545.262 971.105 545.172C966.575 544.982 962.364 547.882 959.767 551.535C957.171 555.187 955.953 559.709 954.678 564.08C968.585 595.05 981.309 626.06 995.217 657.03C995.868 658.196 996.214 659.509 996.223 660.844C995.943 662.231 995.351 663.535 994.492 664.659C987.672 675.615 987.889 689.395 988.634 702.272C989.38 715.149 990.302 728.75 984.547 740.292C982.982 743.461 980.946 746.361 979.457 749.53C975.971 756.707 974.711 779.661 976.747 787.372L1231.87 794.68C1226.38 779.602 1250.83 595.93 1250.83 595.93Z" fill="#F9A826"/>
<path d="M932.625 658.403C932.116 662.085 932.065 665.817 932.473 669.512L936.129 722.024C936.473 726.974 936.811 731.911 937.275 736.848C938.152 746.429 939.463 755.934 941.09 765.426C941.126 766.773 941.696 768.051 942.674 768.979C943.652 769.907 944.958 770.409 946.306 770.375C962.402 773.781 979.032 773.645 995.459 772.717C1020.53 771.318 1084.66 768.671 1088.58 763.581C1092.49 758.491 1090.21 750.259 1085.1 746.143C1079.99 742.028 995.362 731.994 995.362 731.994C996.189 725.441 998.684 719.27 1001.05 713.048C1005.3 702.013 1009.27 690.616 1009.35 678.795C1009.42 666.974 1004.97 654.545 995.286 647.773C987.321 642.213 977.065 641.182 967.358 641.411C960.296 641.614 948.093 639.922 941.643 642.683C936.538 644.931 933.579 653.405 932.625 658.403Z" fill="#FBBEBE"/>
<path d="M953.942 565.023C952.703 566.321 951.742 567.858 951.118 569.541C940.833 592.72 934.758 617.546 933.177 642.856C933.205 644.09 932.921 645.312 932.35 646.406C931.788 647.135 931.162 647.812 930.48 648.429C929.885 649.134 929.435 649.95 929.155 650.829C928.876 651.708 928.772 652.633 928.85 653.552C928.928 654.472 929.186 655.366 929.61 656.186C930.034 657.005 930.615 657.733 931.32 658.328C931.435 658.425 931.554 658.519 931.676 658.609C933.775 654.658 938.801 653.367 943.268 653.023C964.657 651.331 985.55 661.282 1007 660.531C1005.49 655.301 1003.31 650.275 1002.08 644.983C996.619 621.481 1010.23 595.894 1001.89 573.257C1000.22 568.727 997.433 564.274 993.044 562.289C991.226 561.556 989.324 561.052 987.382 560.79C981.961 559.811 971.17 555.624 965.929 557.304C963.995 557.928 963.232 559.747 961.628 560.846C959.192 562.402 955.961 562.974 953.942 565.023Z" fill="#F9A826"/>
<path d="M1250.99 642.683C1244.54 639.922 1232.33 641.614 1225.27 641.411C1215.57 641.182 1205.31 642.213 1197.34 647.773C1187.66 654.545 1183.21 666.974 1183.28 678.795C1183.36 690.616 1187.33 702.013 1191.58 713.048C1193.95 719.27 1196.44 725.441 1197.27 731.994C1197.27 731.994 1112.64 742.028 1107.53 746.143C1102.42 750.259 1100.14 758.491 1104.06 763.581C1107.97 768.671 1230.23 773.781 1246.32 770.375C1247.67 770.409 1248.98 769.907 1249.96 768.979C1250.93 768.051 1251.5 766.773 1251.54 765.426C1253.17 755.934 1254.48 746.429 1255.36 736.848C1255.82 731.911 1256.16 726.974 1256.5 722.024L1260.16 669.512C1260.57 665.817 1260.51 662.086 1260 658.403C1259.05 653.405 1256.09 644.931 1250.99 642.683Z" fill="#FBBEBE"/>
<path d="M1231 560.846C1229.4 559.747 1228.64 557.928 1226.7 557.304C1221.46 555.624 1210.67 559.811 1205.25 560.79C1203.31 561.052 1201.4 561.556 1199.59 562.289C1195.2 564.274 1192.41 568.727 1190.74 573.257C1182.4 595.894 1196.01 621.481 1190.55 644.983C1189.32 650.275 1187.14 655.301 1185.63 660.531C1207.08 661.282 1227.97 651.331 1249.36 653.023C1253.83 653.367 1258.86 654.658 1260.95 658.609C1261.08 658.519 1261.19 658.425 1261.31 658.328C1262.02 657.733 1262.6 657.005 1263.02 656.186C1263.44 655.366 1263.7 654.472 1263.78 653.552C1263.86 652.633 1263.75 651.708 1263.48 650.829C1263.2 649.95 1262.75 649.135 1262.15 648.429C1261.47 647.812 1260.84 647.135 1260.28 646.406C1259.71 645.312 1259.43 644.09 1259.45 642.856C1257.87 617.546 1251.8 592.72 1241.51 569.541C1240.89 567.858 1239.93 566.321 1238.69 565.023C1236.67 562.974 1233.44 562.402 1231 560.846Z" fill="#F9A826"/>
<path d="M1077.92 772.883C1088.46 772.883 1097 764.344 1097 753.81C1097 743.277 1088.46 734.738 1077.92 734.738C1067.39 734.738 1058.85 743.277 1058.85 753.81C1058.85 764.344 1067.39 772.883 1077.92 772.883Z" fill="#FBBEBE"/>
<path d="M1120.16 772.883C1130.69 772.883 1139.23 764.344 1139.23 753.81C1139.23 743.277 1130.69 734.738 1120.16 734.738C1109.62 734.738 1101.08 743.277 1101.08 753.81C1101.08 764.344 1109.62 772.883 1120.16 772.883Z" fill="#FBBEBE"/>
<path d="M1237.89 796.788H975.857C972.797 796.785 969.865 795.568 967.701 793.405C965.538 791.242 964.321 788.309 964.317 785.25V626.283C964.321 623.224 965.538 620.291 967.701 618.128C969.865 615.965 972.797 614.748 975.857 614.744H1237.89C1240.95 614.748 1243.88 615.965 1246.04 618.128C1248.21 620.291 1249.42 623.224 1249.43 626.283V785.25C1249.42 788.309 1248.21 791.242 1246.04 793.405C1243.88 795.568 1240.95 796.785 1237.89 796.788Z" fill="#3F3D56"/>
<path d="M1106.24 713.401C1110.45 713.401 1113.87 709.983 1113.87 705.766C1113.87 701.55 1110.45 698.132 1106.24 698.132C1102.02 698.132 1098.6 701.55 1098.6 705.766C1098.6 709.983 1102.02 713.401 1106.24 713.401Z" fill="white"/>
<path d="M1535.63 764.724H657V791.724H708.97V798H1483.68V791.724H1535.63V764.724Z" fill="#F1F1F1"/>
<path d="M1033.87 440.549C1022.52 440.549 1013.31 430.597 1013.31 418.32V407.205C1013.31 394.928 1022.52 384.976 1033.87 384.976V440.549H1033.87Z" fill="#F9A826"/>
<path d="M1165.09 384.976C1176.45 384.976 1185.65 394.928 1185.65 407.205V418.32C1185.65 430.597 1176.45 440.549 1165.09 440.549V384.976Z" fill="#F9A826"/>
<path d="M1175.87 408.952H1172.61C1172.61 364.222 1138.95 327.831 1097.58 327.831C1056.21 327.831 1022.55 364.222 1022.55 408.952H1019.29C1019.29 362.277 1054.41 324.304 1097.58 324.304C1140.75 324.304 1175.87 362.277 1175.87 408.952Z" fill="#F9A826"/>
</g>
</g>
<defs>
<clipPath id="clip0">
<rect width="1440" height="1024" fill="white"/>
</clipPath>
<clipPath id="clip1">
<rect width="878.63" height="483" fill="white" transform="translate(657 315)"/>
</clipPath>
</defs>
</svg>
